<?xml version="1.0" encoding="UTF-8"?>
<svg id="Layer_1" data-name="Layer 1" xmlns="http://www.w3.org/2000/svg" viewBox="0 0 448.6 115.59">
  <g>
    <path d="m156.79,51.71c-.31.08-.87.25-1.68.51-.81.26-1.72.57-2.73.92s-2.09.73-3.22,1.13c-1.13.4-2.21.78-3.22,1.13s-1.9.66-2.66.92c-.76.26-1.26.43-1.52.51-.18.03-.42.1-.7.23-.29.13-.58.26-.88.39-.3.13-.59.25-.86.37s-.49.18-.64.18c-.55,0-1.04-.11-1.46-.33-.43-.22-.8-.51-1.11-.88-.31-.36-.55-.79-.7-1.29-.16-.49-.23-1-.23-1.52,0-1.07.3-1.91.9-2.54.6-.62,1.31-1.1,2.13-1.43.82-.33,1.67-.54,2.56-.64.88-.1,1.61-.2,2.19-.27.08,0,.23-.04.47-.12s.49-.17.78-.27c.29-.1.57-.2.86-.27.29-.08.52-.12.7-.12.47-.21,1.2-.52,2.19-.94.99-.42,2.07-.84,3.24-1.27s2.34-.81,3.5-1.13c1.16-.33,2.15-.49,2.99-.49.94,0,1.77.15,2.5.45.73.3,1.35.72,1.88,1.25.52.53.92,1.16,1.19,1.88.27.72.41,1.5.41,2.36,0,.37-.03.74-.08,1.11-.05.38-.14.84-.27,1.39-.78,2.92-1.97,5.63-3.57,8.14-1.6,2.51-3.48,4.79-5.64,6.84-2.16,2.04-4.54,3.85-7.15,5.41-2.6,1.56-5.29,2.85-8.05,3.87l.04-.04c-.44.18-.98.37-1.62.57-.64.2-1.3.38-1.99.55-.69.17-1.37.31-2.03.41-.66.1-1.24.16-1.74.16-1.02,0-1.88-.03-2.58-.1-.7-.06-1.3-.14-1.78-.23-.48-.09-.89-.2-1.21-.33-.33-.13-.62-.26-.88-.39-1.48-.68-2.85-1.49-4.08-2.44-1.24-.95-2.3-2.05-3.18-3.3-.89-1.25-1.58-2.64-2.07-4.16-.5-1.52-.74-3.18-.74-4.98,0-1.93.31-3.94.94-6.04.62-2.1,1.48-4.21,2.58-6.35,1.09-2.13,2.38-4.24,3.85-6.33,1.47-2.08,3.07-4.08,4.79-6s3.51-3.69,5.37-5.33c1.86-1.64,3.72-3.09,5.57-4.34,1.12-.75,2.32-1.52,3.61-2.3s2.61-1.48,3.96-2.11c1.35-.62,2.73-1.14,4.12-1.54,1.39-.4,2.75-.61,4.08-.61,1.07,0,2.12.16,3.16.47,1.04.31,1.98.75,2.81,1.31.83.56,1.51,1.24,2.03,2.05.52.81.78,1.71.78,2.7,0,.44-.07.92-.2,1.45-.05.21-.16.57-.31,1.09-.16.52-.35.92-.59,1.21l.08-.08c-.1.34-.28.53-.53.59-.25.05-.5.08-.76.08-.78,0-1.45-.2-1.99-.59s-1.05-.81-1.52-1.27c-.47-.46-.93-.88-1.39-1.27-.46-.39-1-.59-1.62-.59h-1.05c-2.03.44-4.19,1.27-6.48,2.48-2.29,1.21-4.58,2.68-6.86,4.41-2.28,1.73-4.46,3.67-6.54,5.8-2.08,2.14-3.92,4.35-5.51,6.64-1.59,2.29-2.86,4.62-3.81,6.97-.95,2.36-1.43,4.62-1.43,6.78,0,1.77.4,3.29,1.21,4.55.81,1.26,1.98,2.51,3.52,3.73h-.04c.81.52,1.69.96,2.64,1.33.95.37,1.88.55,2.79.55s1.96-.18,3.07-.55c1.11-.36,2.21-.82,3.32-1.37,1.11-.55,2.19-1.15,3.24-1.8,1.05-.65,2.01-1.25,2.87-1.8,2.76-1.8,5.09-3.93,6.99-6.41,1.9-2.47,3.46-5.04,4.69-7.7.05-.13.1-.26.16-.39.05-.1.09-.21.12-.33.03-.12.05-.21.08-.29Z" fill="#d05e00" stroke="#000" stroke-miterlimit="10"/>
    <path d="m167.18,64.33c0-1.12.3-2.07.9-2.85.6-.78,1.39-1.3,2.38-1.56.29-.57.73-1.35,1.33-2.32.6-.98,1.34-2.04,2.23-3.18.88-1.15,1.89-2.3,3.03-3.46,1.13-1.16,2.38-2.21,3.75-3.16,1.37-.95,2.84-1.72,4.41-2.32,1.58-.6,3.25-.9,5.02-.9,1.51,0,2.83.18,3.95.55,1.12.37,2.04.87,2.77,1.52.73.65,1.28,1.43,1.64,2.32.36.9.55,1.87.55,2.91,0,.89-.12,1.73-.35,2.54-.37,1.46-1.04,2.73-2.03,3.83-.99,1.09-2.16,2.05-3.5,2.87-1.34.82-2.8,1.5-4.38,2.05-1.58.55-3.15,1-4.73,1.37-1.58.37-3.09.64-4.55.84-1.46.2-2.72.35-3.79.45-.23.47-.44,1.06-.61,1.78-.17.72-.25,1.41-.25,2.09,0,1.51.6,2.68,1.8,3.52,1.2.83,2.85,1.25,4.96,1.25,1.22,0,2.4-.14,3.52-.41,1.12-.27,2.18-.62,3.18-1.05,1-.43,1.95-.9,2.83-1.41.88-.51,1.69-1.01,2.42-1.5.94-.62,1.83-1.15,2.68-1.58.85-.43,1.59-.64,2.25-.64s1.07.16,1.25.49c.18.33.27.67.27,1.04,0,.21,0,.41-.02.61-.01.2-.03.36-.06.49-.13.68-.39,1.35-.78,2.03-.39.68-.89,1.26-1.48,1.76-2.71,2.14-5.49,3.66-8.34,4.57s-5.89,1.37-9.12,1.37c-.62,0-1.36-.04-2.21-.12-.85-.08-1.73-.23-2.64-.47-.91-.23-1.81-.57-2.7-1.02-.89-.44-1.67-1.03-2.36-1.76-.69-.73-1.25-1.63-1.68-2.7-.43-1.07-.64-2.36-.64-3.87,0-1.22.17-2.59.51-4.1-.34-.05-.66-.23-.96-.53-.3-.3-.45-.74-.45-1.31Zm24.45-10.82c.05-.13.08-.25.08-.35v-.35c0-.7-.26-1.23-.78-1.58-.52-.35-1.15-.53-1.88-.53-1.15,0-2.27.3-3.38.9-1.11.6-2.15,1.35-3.12,2.25s-1.84,1.86-2.6,2.89c-.76,1.03-1.34,1.96-1.76,2.79,1.88-.16,3.59-.41,5.16-.76s2.92-.79,4.08-1.33c1.16-.53,2.1-1.13,2.81-1.8.72-.66,1.18-1.37,1.39-2.13Z" fill="#d05e00" stroke="#000" stroke-miterlimit="10"/>
    <path d="m207.65,64.45c.39-1.59,1-3.27,1.82-5.06.82-1.78,1.89-3.59,3.22-5.41,1.33-1.82,2.92-3.61,4.79-5.35,1.86-1.74,4.02-3.37,6.46-4.88.39-.23.99-.49,1.8-.76.81-.27,1.64-.44,2.5-.49,1.02-1.09,2.38-1.64,4.1-1.64,2.03,0,3.74.51,5.14,1.54,1.39,1.03,2.54,2.43,3.46,4.2.29.57.55,1.13.8,1.68.25.55.46,1.13.62,1.74.17.61.31,1.27.41,1.97.1.7.16,1.5.16,2.38,0,2.06-.33,4.15-.98,6.29-.65,2.14-1.58,4.22-2.77,6.25-1.2,2.03-2.65,3.98-4.36,5.84-1.71,1.86-3.6,3.54-5.68,5.02-1.41,1.02-2.96,1.8-4.67,2.36-1.71.56-3.61.84-5.72.84s-3.74-.27-5.21-.8c-1.47-.53-2.7-1.29-3.67-2.29-.98-.99-1.71-2.17-2.19-3.55-.48-1.38-.72-2.92-.72-4.61s.23-3.4.7-5.27Zm6.48.51c-.16.6-.27,1.17-.33,1.7-.07.53-.1,1.05-.1,1.54,0,.86.11,1.66.33,2.4.22.74.58,1.38,1.07,1.91.49.53,1.11.95,1.86,1.25.74.3,1.65.45,2.71.45,1.98,0,3.82-.5,5.53-1.5,1.71-1,3.22-2.26,4.55-3.77,1.33-1.51,2.44-3.13,3.34-4.86.9-1.73,1.53-3.33,1.89-4.79.23-.91.44-1.77.61-2.58.17-.81.25-1.55.25-2.23s-.12-1.31-.37-1.89c-.25-.59-.57-1.24-.96-1.97-.23-.44-.47-.9-.7-1.39-.23-.48-.44-.96-.62-1.43-.21.37-.43.68-.66.96s-.59.52-1.05.74c-.47.22-1.11.42-1.91.61-.81.18-1.86.34-3.16.47-.86.29-1.73.73-2.62,1.33-.89.6-1.75,1.3-2.6,2.11-.85.81-1.65,1.68-2.42,2.62-.77.94-1.46,1.89-2.07,2.87-.61.98-1.15,1.93-1.6,2.87-.46.94-.78,1.8-.96,2.58Z" fill="#d05e00" stroke="#000" stroke-miterlimit="10"/>
    <path d="m246.16,93.86c.52-2.11.98-4.04,1.39-5.8.4-1.76.77-3.41,1.11-4.96.34-1.55.66-3.05.96-4.49.3-1.45.6-2.9.9-4.38.3-1.47.61-3,.94-4.59.33-1.59.68-3.32,1.07-5.2l1.88-9.06c.31-1.54.53-2.86.64-3.96.12-1.11.18-2.13.18-3.07,0-.99.03-1.87.08-2.64.05-.77.2-1.42.43-1.95.23-.53.58-.94,1.04-1.21.46-.27,1.09-.41,1.89-.41,1.17,0,2.08.16,2.73.49.65.33,1.13.75,1.45,1.27.31.52.5,1.12.57,1.8.06.68.1,1.38.1,2.11.88-.62,1.92-1.18,3.11-1.68,1.18-.49,2.42-.9,3.69-1.23,1.28-.33,2.56-.58,3.87-.76,1.3-.18,2.53-.27,3.67-.27,1.88,0,3.52.33,4.92,1s2.58,1.55,3.52,2.66c.94,1.11,1.64,2.38,2.11,3.83s.7,2.94.7,4.47c0,1.8-.29,3.49-.86,5.08-.57,1.59-1.35,3.07-2.34,4.45-.99,1.38-2.14,2.66-3.46,3.85-1.32,1.19-2.73,2.27-4.26,3.26-1.52.99-3.1,1.89-4.73,2.71-1.63.82-3.24,1.56-4.82,2.21-1.07.44-2.08.78-3.03,1-.95.22-1.8.33-2.56.33-1.07,0-2.1-.12-3.11-.35-1-.23-1.97-.62-2.91-1.17-.52,1.77-.96,3.46-1.31,5.08-.35,1.61-.63,3.05-.84,4.3-.13.78-.29,1.6-.47,2.46-.18.86-.37,1.7-.55,2.52-.18.82-.36,1.59-.53,2.32-.17.73-.31,1.35-.41,1.88-.08.31-.27.57-.57.78-.3.21-.66.38-1.07.53-.42.14-.84.25-1.27.31-.43.06-.81.1-1.15.1-1.93,0-2.89-.76-2.89-2.27,0-.42.06-.86.2-1.33Zm12.11-22.66c.39.05.81.12,1.25.2.44.08.87.16,1.29.23.42.08.77.15,1.07.21.3.07.5.1.61.1.49,0,1.05-.06,1.66-.2.61-.13,1.22-.3,1.84-.51.61-.21,1.2-.44,1.78-.68.57-.25,1.08-.49,1.52-.72,1.28-.65,2.64-1.44,4.08-2.36,1.45-.92,2.79-1.99,4.02-3.18,1.24-1.2,2.26-2.54,3.07-4.02.81-1.48,1.21-3.12,1.21-4.92,0-.73-.09-1.41-.27-2.03-.18-.62-.46-1.17-.82-1.64-.37-.47-.84-.84-1.43-1.11s-1.28-.41-2.09-.41c-.89,0-1.72.06-2.5.18s-1.55.31-2.3.57c-.76.26-1.51.59-2.27,1-.76.4-1.54.89-2.34,1.46-.73.6-1.55,1.13-2.46,1.58-.91.46-1.9.75-2.97.88l-3.95,15.39Z" fill="#d05e00" stroke="#000" stroke-miterlimit="10"/>
    <path d="m295.5,75.38c.34-1.82.73-3.83,1.17-6.02.44-2.19.9-4.4,1.37-6.64.47-2.24.92-4.44,1.37-6.6.44-2.16.82-4.14,1.13-5.94-.03-.26-.04-.49-.04-.68v-.64c0-.81.05-1.61.16-2.42.1-.81.25-1.55.43-2.23.29-.99.61-1.66.96-2.01s.92-.53,1.7-.53,1.36.15,1.82.45c.46.3.81.7,1.07,1.19.26.5.43,1.06.51,1.7.08.64.12,1.3.12,1.97,0,.37-.01.77-.04,1.21-.03.44-.04.79-.04,1.05.73-.75,1.5-1.53,2.32-2.32.82-.79,1.69-1.51,2.62-2.15.92-.64,1.9-1.17,2.93-1.58,1.03-.42,2.1-.62,3.22-.62.44,0,.88.04,1.31.12s.87.18,1.31.31c.52.13,1.06.31,1.62.53.56.22,1.1.53,1.62.92.86.65,1.58,1.46,2.17,2.44s.88,1.97.88,2.99c0,.39-.08.81-.23,1.27-.16.46-.37.87-.64,1.25-.27.38-.59.69-.96.94-.37.25-.77.37-1.21.37s-.98-.11-1.62-.33c-.64-.22-1.17-.51-1.58-.88-.18-.16-.37-.38-.57-.66-.2-.29-.38-.57-.55-.86-.17-.29-.33-.55-.47-.8-.14-.25-.25-.41-.33-.49-.13-.03-.27-.04-.43-.06-.16-.01-.3-.02-.43-.02-1.33,0-2.59.34-3.79,1.02-1.2.68-2.32,1.5-3.36,2.48-1.04.98-2,2.02-2.87,3.12-.87,1.11-1.63,2.1-2.29,2.99-.52,2.11-1.1,4.36-1.74,6.74-.64,2.38-1.27,4.88-1.89,7.48v.98c0,.78-.03,1.58-.08,2.38-.05.81-.21,1.52-.47,2.15-.29.39-.7.72-1.23,1-.53.27-1.15.41-1.86.41-1.09,0-1.91-.36-2.46-1.07s-.82-1.56-.82-2.52c0-.44.06-.9.2-1.37Z" fill="#d05e00" stroke="#000" stroke-miterlimit="10"/>
    <path d="m328.7,72.26c.39-1.51.86-3.27,1.41-5.27.55-2,1.13-4.13,1.74-6.37.61-2.24,1.23-4.53,1.86-6.88s1.21-4.62,1.76-6.84c.03-.1.12-.28.27-.53.16-.25.38-.49.66-.74.29-.25.65-.46,1.09-.64.44-.18.96-.27,1.56-.27.44,0,.87.05,1.29.14.42.09.79.23,1.11.41.33.18.59.42.78.72.2.3.29.64.29,1.04v.25c0,.09-.01.18-.04.25l-1.09,4.14c-1.22,4.64-2.47,9.28-3.73,13.95-1.26,4.66-2.49,9.34-3.69,14.02-.05.16-.13.35-.23.59-.1.23-.25.47-.43.7-.18.23-.4.43-.66.59-.26.16-.57.23-.94.23-.68,0-1.28-.14-1.8-.41-.52-.27-.96-.62-1.33-1.04-.37-.42-.64-.87-.82-1.37-.18-.49-.27-.96-.27-1.41v-.35c0-.1.03-.22.08-.35l1.13-4.57Zm10.2-40.43c.13-.55.36-1.21.7-1.99.34-.78.94-1.48,1.8-2.11.42-.23.92-.45,1.52-.64.6-.2,1.03-.29,1.29-.29s.53.09.8.27c.27.18.51.38.72.59.26.26.51.55.74.86.65.05,1.07.29,1.27.7.2.42.29.91.29,1.48,0,.42-.04.79-.12,1.13-.08.34-.14.61-.2.82-.16.55-.46,1.05-.9,1.5-.44.46-.95.85-1.52,1.17-.57.33-1.17.58-1.8.76-.62.18-1.17.27-1.64.27-.6,0-1.06-.1-1.39-.31-.33-.21-.74-.65-1.23-1.33-.29-.39-.45-.7-.49-.92-.04-.22-.06-.41-.06-.57,0-.29.02-.54.06-.76.04-.22.08-.44.14-.64Z" fill="#d05e00" stroke="#000" stroke-miterlimit="10"/>
    <path d="m349.41,64.45c.39-1.59,1-3.27,1.82-5.06.82-1.78,1.89-3.59,3.22-5.41,1.33-1.82,2.92-3.61,4.79-5.35,1.86-1.74,4.02-3.37,6.46-4.88.39-.23.99-.49,1.8-.76.81-.27,1.64-.44,2.5-.49,1.02-1.09,2.38-1.64,4.1-1.64,2.03,0,3.74.51,5.14,1.54,1.39,1.03,2.54,2.43,3.46,4.2.29.57.55,1.13.8,1.68.25.55.46,1.13.62,1.74.17.61.31,1.27.41,1.97.1.7.16,1.5.16,2.38,0,2.06-.33,4.15-.98,6.29-.65,2.14-1.58,4.22-2.77,6.25-1.2,2.03-2.65,3.98-4.36,5.84-1.71,1.86-3.6,3.54-5.68,5.02-1.41,1.02-2.96,1.8-4.67,2.36-1.71.56-3.61.84-5.72.84s-3.74-.27-5.21-.8c-1.47-.53-2.7-1.29-3.67-2.29-.98-.99-1.71-2.17-2.19-3.55-.48-1.38-.72-2.92-.72-4.61s.23-3.4.7-5.27Zm6.48.51c-.16.6-.27,1.17-.33,1.7-.07.53-.1,1.05-.1,1.54,0,.86.11,1.66.33,2.4.22.74.58,1.38,1.07,1.91.49.53,1.11.95,1.86,1.25.74.3,1.65.45,2.71.45,1.98,0,3.82-.5,5.53-1.5,1.71-1,3.22-2.26,4.55-3.77,1.33-1.51,2.44-3.13,3.34-4.86.9-1.73,1.53-3.33,1.89-4.79.23-.91.44-1.77.61-2.58.17-.81.25-1.55.25-2.23s-.12-1.31-.37-1.89c-.25-.59-.57-1.24-.96-1.97-.23-.44-.47-.9-.7-1.39-.23-.48-.44-.96-.62-1.43-.21.37-.43.68-.66.96s-.59.52-1.05.74c-.47.22-1.11.42-1.91.61-.81.18-1.86.34-3.16.47-.86.29-1.73.73-2.62,1.33-.89.6-1.75,1.3-2.6,2.11-.85.81-1.65,1.68-2.42,2.62-.77.94-1.46,1.89-2.07,2.87-.61.98-1.15,1.93-1.6,2.87-.46.94-.78,1.8-.96,2.58Z" fill="#d05e00" stroke="#000" stroke-miterlimit="10"/>
    <path d="m392.1,75.38c.34-1.82.73-3.83,1.17-6.02.44-2.19.9-4.4,1.37-6.64.47-2.24.92-4.44,1.37-6.6.44-2.16.82-4.14,1.13-5.94-.03-.26-.04-.49-.04-.68v-.64c0-.81.05-1.61.16-2.42.1-.81.25-1.55.43-2.23.29-.99.61-1.66.96-2.01s.92-.53,1.7-.53,1.36.15,1.82.45c.46.3.81.7,1.07,1.19.26.5.43,1.06.51,1.7.08.64.12,1.3.12,1.97,0,.37-.01.77-.04,1.21-.03.44-.04.79-.04,1.05.73-.75,1.5-1.53,2.32-2.32.82-.79,1.69-1.51,2.62-2.15.92-.64,1.9-1.17,2.93-1.58,1.03-.42,2.1-.62,3.22-.62.44,0,.88.04,1.31.12s.87.18,1.31.31c.52.13,1.06.31,1.62.53.56.22,1.1.53,1.62.92.86.65,1.58,1.46,2.17,2.44s.88,1.97.88,2.99c0,.39-.08.81-.23,1.27-.16.46-.37.87-.64,1.25-.27.38-.59.69-.96.94-.37.25-.77.37-1.21.37s-.98-.11-1.62-.33c-.64-.22-1.17-.51-1.58-.88-.18-.16-.37-.38-.57-.66-.2-.29-.38-.57-.55-.86-.17-.29-.33-.55-.47-.8-.14-.25-.25-.41-.33-.49-.13-.03-.27-.04-.43-.06-.16-.01-.3-.02-.43-.02-1.33,0-2.59.34-3.79,1.02-1.2.68-2.32,1.5-3.36,2.48-1.04.98-2,2.02-2.87,3.12-.87,1.11-1.63,2.1-2.29,2.99-.52,2.11-1.1,4.36-1.74,6.74-.64,2.38-1.27,4.88-1.89,7.48v.98c0,.78-.03,1.58-.08,2.38-.05.81-.21,1.52-.47,2.15-.29.39-.7.72-1.23,1-.53.27-1.15.41-1.86.41-1.09,0-1.91-.36-2.46-1.07s-.82-1.56-.82-2.52c0-.44.06-.9.2-1.37Z" fill="#d05e00" stroke="#000" stroke-miterlimit="10"/>
  </g>
  <g>
    <path d="m415.26,91.13l-6.07,11.81c-.94,1.83-1.73,3.1-2.39,3.81s-1.36,1.07-2.11,1.07-1.33-.27-1.78-.8c-.95-1.06-1.79-2.27-2.51-3.61l-6.66-12.63c-.36-.69-.71-1.18-1.04-1.49s-.8-.54-1.39-.69c-1.19-.34-1.78-.98-1.78-1.92s.73-1.65,2.2-2.09,3.79-.66,6.96-.66c2.66,0,4.61.19,5.87.57s1.89.97,1.89,1.77c0,.56-.3,1.1-.89,1.62-.38.34-.62.6-.73.77s-.16.39-.16.66c0,.53.34,1.41,1.03,2.65.69,1.2,1.33,1.8,1.92,1.8.39,0,.71-.15.96-.45s.7-1.06,1.36-2.3c.48-.91.73-1.59.73-2.06,0-.38-.25-.82-.75-1.34-.53-.56-.8-1.09-.8-1.57,0-.75.5-1.29,1.49-1.62s2.62-.49,4.89-.49c3.19,0,4.78.69,4.78,2.06,0,.8-.57,1.38-1.71,1.73-.89.28-1.5.59-1.82.91s-.82,1.15-1.49,2.46Z" fill="#0492c2" stroke="#1c75bc" stroke-miterlimit="10" stroke-width="2"/>
    <path d="m432.29,80.25c3.03,0,5.71.55,8.04,1.66.92.45,1.65,1.08,2.19,1.89s.81,1.67.81,2.59c0,1.69-.88,3.23-2.65,4.64-.5.41-.75.73-.75.96,0,.45.45.77,1.34.94,4.22.78,6.33,3.12,6.33,7.03,0,2.45-.86,4.7-2.58,6.73-1.62,1.95-4.02,3.39-7.2,4.31-2.28.66-4.79.98-7.52.98-3.2,0-5.95-.45-8.25-1.34-1.45-.56-2.18-1.38-2.18-2.46,0-.67.25-1.24.74-1.7s1.09-.69,1.79-.69c.39,0,1.45.2,3.16.59.56.14,1.37.21,2.41.21,1.88,0,3.37-.43,4.48-1.29,1.17-.92,1.76-1.98,1.76-3.16,0-1.11-.45-2.02-1.36-2.73s-2.07-1.07-3.49-1.07c-.91,0-1.7.1-2.39.3-.41.12-.71.19-.91.19-.41,0-.82-.41-1.25-1.24s-.64-1.63-.64-2.41c0-.38.1-.63.3-.76s.85-.39,1.95-.76c.98-.33,1.93-.95,2.84-1.88.69-.7,1.03-1.46,1.03-2.27,0-.89-.35-1.66-1.05-2.31s-1.55-.97-2.53-.97c-.59,0-1.1.07-1.51.21s-1.18.51-2.29,1.1c-.33.17-.59.26-.77.26-.39,0-.76-.27-1.11-.82s-.53-1.12-.53-1.73c0-1.06.94-2.06,2.81-3,1.17-.59,2.58-1.07,4.23-1.44s3.24-.55,4.77-.55Z" fill="#0492c2" stroke="#1c75bc" stroke-miterlimit="10" stroke-width="2"/>
  </g>
  <polyline points="24.93 23.4 49.47 19.72 40.27 35.67 72.17 35.67 2.23 113.58" fill="none" stroke="#fbb040" stroke-miterlimit="10" stroke-width="6"/>
  <polyline points="46.88 79.41 78.94 42.06 81.62 67.61 136.59 1.93" fill="none" stroke="#0492c2" stroke-miterlimit="10" stroke-width="6"/>
</svg>